<?xml version="1.0" encoding="UTF-8" standalone="no"?>
<svg
   xmlns:dc="http://purl.org/dc/elements/1.1/"
   xmlns:cc="http://creativecommons.org/ns#"
   xmlns:rdf="http://www.w3.org/1999/02/22-rdf-syntax-ns#"
   xmlns:svg="http://www.w3.org/2000/svg"
   xmlns="http://www.w3.org/2000/svg"
   version="1.1"
   id="svg2"
   viewBox="0 0 99.999997 99.999997"
   height="100"
   width="100">
  <defs
     id="defs4" />
  <metadata
     id="metadata7">
    <rdf:RDF>
      <cc:Work
         rdf:about="">
        <dc:format>image/svg+xml</dc:format>
        <dc:type
           rdf:resource="http://purl.org/dc/dcmitype/StillImage" />
        <dc:title></dc:title>
      </cc:Work>
    </rdf:RDF>
  </metadata>
  <g
     transform="translate(0,-952.36223)"
     id="layer1">
    <path
       id="path4765"
       transform="translate(0,952.36223)"
       d="M 50 10 A 40 40 0 0 0 10 50 A 40 40 0 0 0 50 90 A 40 40 0 0 0 90 50 A 40 40 0 0 0 50 10 z M 50 20 A 30 30 0 0 1 80 50 A 30 30 0 0 1 50 80 A 30 30 0 0 1 20 50 A 30 30 0 0 1 50 20 z "
       style="fill:#0000ff;stroke:none;stroke-width:10;stroke-miterlimit:4;stroke-dasharray:none" />
    <circle
       r="30"
       cy="1002.3622"
       cx="50"
       id="path4770"
       style="fill:#ffff00;stroke:none;stroke-width:10;stroke-miterlimit:4;stroke-dasharray:none" />
    <text
       id="text4772"
       y="1025.1204"
       x="28.249306"
       style="font-style:normal;font-weight:normal;font-size:62.51988983px;line-height:125%;font-family:sans-serif;letter-spacing:0px;word-spacing:0px;fill:#d40000;fill-opacity:1;stroke:none;stroke-width:1px;stroke-linecap:butt;stroke-linejoin:miter;stroke-opacity:1;"
       xml:space="preserve"><tspan
         style="font-style:normal;font-variant:normal;font-weight:normal;font-stretch:normal;font-family:serif;-inkscape-font-specification:serif;fill:#d40000;"
         y="1025.1204"
         x="28.249306"
         id="tspan4774">S</tspan></text>
  </g>
</svg>
