<?xml version="1.0" encoding="UTF-8" standalone="no"?>
<svg
   xmlns:dc="http://purl.org/dc/elements/1.1/"
   xmlns:cc="http://creativecommons.org/ns#"
   xmlns:rdf="http://www.w3.org/1999/02/22-rdf-syntax-ns#"
   xmlns:svg="http://www.w3.org/2000/svg"
   xmlns="http://www.w3.org/2000/svg"
   version="1.1"
   id="svg2"
   viewBox="0 0 100 100"
   height="28.222221mm"
   width="28.222221mm">
  <defs
     id="defs4" />
  <metadata
     id="metadata7">
    <rdf:RDF>
      <cc:Work
         rdf:about="">
        <dc:format>image/svg+xml</dc:format>
        <dc:type
           rdf:resource="http://purl.org/dc/dcmitype/StillImage" />
        <dc:title></dc:title>
      </cc:Work>
    </rdf:RDF>
  </metadata>
  <g
     transform="translate(2.8571429,-963.79083)"
     id="layer1">
    <path
       id="path4135"
       transform="translate(-2.8571429,963.79083)"
       d="M 50 0 A 50 50 0 0 0 0 50 A 50 50 0 0 0 50 100 A 50 50 0 0 0 100 50 A 50 50 0 0 0 50 0 z M 50 10 A 40 40 0 0 1 90 50 A 40 40 0 0 1 50 90 A 40 40 0 0 1 10 50 A 40 40 0 0 1 50 10 z "
       style="fill:#333333;stroke:none;stroke-width:10;stroke-miterlimit:4;stroke-dasharray:none" />
  </g>
</svg>
